<?xml version="1.0" encoding="UTF-8" standalone="no"?>
<svg
   version="1.1"
   height="106"
   width="106"
   id="svg1996"
   sodipodi:docname="miu.svg"
   xml:space="preserve"
   inkscape:export-filename="miu.png"
   inkscape:export-xdpi="96"
   inkscape:export-ydpi="96"
   inkscape:version="1.2.1 (9c6d41e, 2022-07-14)"
   xmlns:inkscape="http://www.inkscape.org/namespaces/inkscape"
   xmlns:sodipodi="http://sodipodi.sourceforge.net/DTD/sodipodi-0.dtd"
   xmlns:xlink="http://www.w3.org/1999/xlink"
   xmlns="http://www.w3.org/2000/svg"
   xmlns:svg="http://www.w3.org/2000/svg"><defs
     id="defs2000" /><sodipodi:namedview
     id="namedview1998"
     pagecolor="#ffffff"
     bordercolor="#000000"
     borderopacity="0.25"
     inkscape:showpageshadow="2"
     inkscape:pageopacity="0.0"
     inkscape:pagecheckerboard="0"
     inkscape:deskcolor="#d1d1d1"
     showgrid="false"
     inkscape:zoom="4.1273585"
     inkscape:cx="-23.380571"
     inkscape:cy="76.198857"
     inkscape:window-width="1920"
     inkscape:window-height="1016"
     inkscape:window-x="1920"
     inkscape:window-y="27"
     inkscape:window-maximized="1"
     inkscape:current-layer="logo" /><g
     id="logo"
     transform="translate(53,53)"
     style="display:inline"><g
       id="gear"
       mask="url(#holes)"><circle
         r="43"
         fill="none"
         stroke="#000000"
         stroke-width="9"
         id="circle1906"
         cx="0"
         cy="0"
         style="display:inline" /><g
         id="cogs"
         style="display:inline"><polygon
           id="cog"
           stroke="#000000"
           stroke-width="3"
           stroke-linejoin="round"
           points="51,0 46,-3 46,3 " /><use
           xlink:href="#cog"
           transform="rotate(11.25)"
           id="use1909" /><use
           xlink:href="#cog"
           transform="rotate(22.5)"
           id="use1911" /><use
           xlink:href="#cog"
           transform="rotate(33.75)"
           id="use1913" /><use
           xlink:href="#cog"
           transform="rotate(45)"
           id="use1915" /><use
           xlink:href="#cog"
           transform="rotate(56.25)"
           id="use1917" /><use
           xlink:href="#cog"
           transform="rotate(67.5)"
           id="use1919" /><use
           xlink:href="#cog"
           transform="rotate(78.75)"
           id="use1921" /><use
           xlink:href="#cog"
           transform="rotate(90)"
           id="use1923" /><use
           xlink:href="#cog"
           transform="rotate(101.25)"
           id="use1925" /><use
           xlink:href="#cog"
           transform="rotate(112.5)"
           id="use1927" /><use
           xlink:href="#cog"
           transform="rotate(123.75)"
           id="use1929" /><use
           xlink:href="#cog"
           transform="rotate(135)"
           id="use1931" /><use
           xlink:href="#cog"
           transform="rotate(146.25)"
           id="use1933" /><use
           xlink:href="#cog"
           transform="rotate(157.5)"
           id="use1935" /><use
           xlink:href="#cog"
           transform="rotate(168.75)"
           id="use1937" /><use
           xlink:href="#cog"
           transform="scale(-1)"
           id="use1939" /><use
           xlink:href="#cog"
           transform="rotate(-168.75)"
           id="use1941" /><use
           xlink:href="#cog"
           transform="rotate(-157.5)"
           id="use1943" /><use
           xlink:href="#cog"
           transform="rotate(-146.25)"
           id="use1945" /><use
           xlink:href="#cog"
           transform="rotate(-135)"
           id="use1947" /><use
           xlink:href="#cog"
           transform="rotate(-123.75)"
           id="use1949" /><use
           xlink:href="#cog"
           transform="rotate(-112.5)"
           id="use1951" /><use
           xlink:href="#cog"
           transform="rotate(-101.25)"
           id="use1953" /><use
           xlink:href="#cog"
           transform="rotate(-90)"
           id="use1955" /><use
           xlink:href="#cog"
           transform="rotate(-78.75)"
           id="use1957" /><use
           xlink:href="#cog"
           transform="rotate(-67.5)"
           id="use1959" /><use
           xlink:href="#cog"
           transform="rotate(-56.25)"
           id="use1961" /><use
           xlink:href="#cog"
           transform="rotate(-45)"
           id="use1963" /><use
           xlink:href="#cog"
           transform="rotate(-33.75)"
           id="use1965" /><use
           xlink:href="#cog"
           transform="rotate(-22.5)"
           id="use1967" /><use
           xlink:href="#cog"
           transform="rotate(-11.25)"
           id="use1969" /></g><g
         id="mounts"
         style="display:inline"><polygon
           id="mount"
           stroke="#000000"
           stroke-width="6"
           stroke-linejoin="round"
           points="0,-35 7,-42 -7,-42 " /><use
           xlink:href="#mount"
           transform="rotate(72)"
           id="use1973" /><use
           xlink:href="#mount"
           transform="rotate(144)"
           id="use1975" /><use
           xlink:href="#mount"
           transform="rotate(-144)"
           id="use1977" /><use
           xlink:href="#mount"
           transform="rotate(-72)"
           id="use1979"
           style="display:inline" /></g></g><mask
       id="holes"><rect
         x="-60"
         y="-60"
         width="120"
         height="120"
         fill="#ffffff"
         id="rect1983" /><circle
         id="hole"
         cy="-40"
         r="3"
         cx="0" /><use
         xlink:href="#hole"
         transform="rotate(72)"
         id="use1986" /><use
         xlink:href="#hole"
         transform="rotate(144)"
         id="use1988" /><use
         xlink:href="#hole"
         transform="rotate(-144)"
         id="use1990" /><use
         xlink:href="#hole"
         transform="rotate(-72)"
         id="use1992" /></mask><g
       id="g2849"
       transform="matrix(0.12039157,0,0,0.11968046,-31.314527,-30.522971)"
       inkscape:transform-center-x="0.54191908"
       inkscape:transform-center-y="-0.82650572"
       style="display:inline"
       inkscape:label="cat">
	<path
   class="st0"
   d="m 481.875,299.344 30.125,-7.125 -4.656,-19.641 -24.25,5.734 c 0,-0.328 0.016,-0.641 0.016,-0.969 0,-38.078 -10.531,-72.781 -28.969,-102.359 15.438,-53.938 -13.438,-124.547 -13.438,-124.547 0,0 -52.89,22.563 -82.984,49.86 C 327.109,91.063 292.578,88.094 256,88.094 c -36.766,0 -71.484,2.563 -102.203,11.781 -30.156,-27.109 -82.5,-49.438 -82.5,-49.438 0,0 -28.891,70.626 -13.438,124.563 -18.422,29.578 -28.984,64.281 -28.984,102.344 0,0.328 0.031,0.641 0.031,0.969 L 4.656,272.579 0,292.219 l 30.109,7.125 c 2.672,23.578 9.672,44.75 20.234,63.422 l -37.468,14.984 7.484,18.75 41.203,-16.484 c 39.797,53.141 111.969,81.547 194.438,81.547 82.453,0 154.641,-28.406 194.438,-81.547 l 41.203,16.484 7.484,-18.75 -37.469,-14.984 c 10.563,-18.672 17.563,-39.844 20.219,-63.422 z"
   id="path2847" />
</g></g><style
     type="text/css"
     id="style2845">
<![CDATA[
	.st0{fill:#000000;}
]]>
</style></svg>
